<mxfile modified="2022-05-22T01:34:06.005Z" host="app.diagrams.net" agent="5.0 (Windows NT 10.0; Win64; x64) AppleWebKit/537.36 (KHTML, like Gecko) Chrome/101.0.4951.67 Safari/537.36" etag="ovao7nIUGVP-R23eZaGW" version="18.1.1" type="github">
  <diagram id="Ht1M8jgEwFfnCIfOTk4-" name="Page-1">
    <mxGraphModel dx="2031" dy="1187" grid="1" gridSize="10" guides="1" tooltips="1" connect="1" arrows="1" fold="1" page="1" pageScale="1" pageWidth="1169" pageHeight="827" math="0" shadow="0">
      <root>
        <mxCell id="0" />
        <mxCell id="1" parent="0" />
        <mxCell id="oiIDUnYNHTpMOxStJqNs-13" value="VPC" style="points=[[0,0],[0.25,0],[0.5,0],[0.75,0],[1,0],[1,0.25],[1,0.5],[1,0.75],[1,1],[0.75,1],[0.5,1],[0.25,1],[0,1],[0,0.75],[0,0.5],[0,0.25]];outlineConnect=0;gradientColor=none;html=1;whiteSpace=wrap;fontSize=12;fontStyle=0;container=1;pointerEvents=0;collapsible=0;recursiveResize=0;shape=mxgraph.aws4.group;grIcon=mxgraph.aws4.group_vpc;strokeColor=#248814;fillColor=none;verticalAlign=top;align=left;spacingLeft=30;fontColor=#AAB7B8;dashed=0;" vertex="1" parent="1">
          <mxGeometry x="750" y="1220" width="550" height="470" as="geometry" />
        </mxCell>
        <mxCell id="oiIDUnYNHTpMOxStJqNs-14" value="Private subnet" style="points=[[0,0],[0.25,0],[0.5,0],[0.75,0],[1,0],[1,0.25],[1,0.5],[1,0.75],[1,1],[0.75,1],[0.5,1],[0.25,1],[0,1],[0,0.75],[0,0.5],[0,0.25]];outlineConnect=0;gradientColor=none;html=1;whiteSpace=wrap;fontSize=12;fontStyle=0;container=1;pointerEvents=0;collapsible=0;recursiveResize=0;shape=mxgraph.aws4.group;grIcon=mxgraph.aws4.group_security_group;grStroke=0;strokeColor=#147EBA;fillColor=#E6F2F8;verticalAlign=top;align=left;spacingLeft=30;fontColor=#147EBA;dashed=0;" vertex="1" parent="oiIDUnYNHTpMOxStJqNs-13">
          <mxGeometry x="145" y="64" width="260" height="110" as="geometry" />
        </mxCell>
        <mxCell id="oiIDUnYNHTpMOxStJqNs-15" value="Private subnet" style="points=[[0,0],[0.25,0],[0.5,0],[0.75,0],[1,0],[1,0.25],[1,0.5],[1,0.75],[1,1],[0.75,1],[0.5,1],[0.25,1],[0,1],[0,0.75],[0,0.5],[0,0.25]];outlineConnect=0;gradientColor=none;html=1;whiteSpace=wrap;fontSize=12;fontStyle=0;container=1;pointerEvents=0;collapsible=0;recursiveResize=0;shape=mxgraph.aws4.group;grIcon=mxgraph.aws4.group_security_group;grStroke=0;strokeColor=#147EBA;fillColor=#E6F2F8;verticalAlign=top;align=left;spacingLeft=30;fontColor=#147EBA;dashed=0;" vertex="1" parent="oiIDUnYNHTpMOxStJqNs-13">
          <mxGeometry x="145" y="290" width="260" height="110" as="geometry" />
        </mxCell>
        <mxCell id="oiIDUnYNHTpMOxStJqNs-27" value="" style="sketch=0;points=[[0,0,0],[0.25,0,0],[0.5,0,0],[0.75,0,0],[1,0,0],[0,1,0],[0.25,1,0],[0.5,1,0],[0.75,1,0],[1,1,0],[0,0.25,0],[0,0.5,0],[0,0.75,0],[1,0.25,0],[1,0.5,0],[1,0.75,0]];points=[[0,0,0],[0.25,0,0],[0.5,0,0],[0.75,0,0],[1,0,0],[0,1,0],[0.25,1,0],[0.5,1,0],[0.75,1,0],[1,1,0],[0,0.25,0],[0,0.5,0],[0,0.75,0],[1,0.25,0],[1,0.5,0],[1,0.75,0]];outlineConnect=0;fontColor=#232F3E;gradientColor=#F34482;gradientDirection=north;fillColor=#BC1356;strokeColor=#ffffff;dashed=0;verticalLabelPosition=bottom;verticalAlign=top;align=center;html=1;fontSize=12;fontStyle=0;aspect=fixed;shape=mxgraph.aws4.resourceIcon;resIcon=mxgraph.aws4.autoscaling;" vertex="1" parent="oiIDUnYNHTpMOxStJqNs-13">
          <mxGeometry x="240" y="190" width="50" height="50" as="geometry" />
        </mxCell>
        <mxCell id="oiIDUnYNHTpMOxStJqNs-28" value="Auto Scaling" style="text;html=1;resizable=0;autosize=1;align=center;verticalAlign=middle;points=[];fillColor=none;strokeColor=none;rounded=0;" vertex="1" parent="oiIDUnYNHTpMOxStJqNs-13">
          <mxGeometry x="225" y="240" width="80" height="20" as="geometry" />
        </mxCell>
        <mxCell id="SyALjqZVbwJZsE9M6Zfd-1" value="AWS Cloud" style="points=[[0,0],[0.25,0],[0.5,0],[0.75,0],[1,0],[1,0.25],[1,0.5],[1,0.75],[1,1],[0.75,1],[0.5,1],[0.25,1],[0,1],[0,0.75],[0,0.5],[0,0.25]];outlineConnect=0;gradientColor=none;html=1;whiteSpace=wrap;fontSize=12;fontStyle=0;container=1;pointerEvents=0;collapsible=0;recursiveResize=0;shape=mxgraph.aws4.group;grIcon=mxgraph.aws4.group_aws_cloud_alt;strokeColor=#232F3E;fillColor=none;verticalAlign=top;align=left;spacingLeft=30;fontColor=#232F3E;dashed=0;" parent="1" vertex="1">
          <mxGeometry x="260" y="180" width="1290" height="790" as="geometry" />
        </mxCell>
        <mxCell id="SyALjqZVbwJZsE9M6Zfd-2" value="" style="sketch=0;points=[[0,0,0],[0.25,0,0],[0.5,0,0],[0.75,0,0],[1,0,0],[0,1,0],[0.25,1,0],[0.5,1,0],[0.75,1,0],[1,1,0],[0,0.25,0],[0,0.5,0],[0,0.75,0],[1,0.25,0],[1,0.5,0],[1,0.75,0]];outlineConnect=0;fontColor=#232F3E;gradientColor=#945DF2;gradientDirection=north;fillColor=#5A30B5;strokeColor=#ffffff;dashed=0;verticalLabelPosition=bottom;verticalAlign=top;align=center;html=1;fontSize=17;fontStyle=0;aspect=fixed;shape=mxgraph.aws4.resourceIcon;resIcon=mxgraph.aws4.cloudfront;" parent="SyALjqZVbwJZsE9M6Zfd-1" vertex="1">
          <mxGeometry x="120" y="374" width="80" height="80" as="geometry" />
        </mxCell>
        <mxCell id="SyALjqZVbwJZsE9M6Zfd-7" value="Amazon &lt;br&gt;Cloud Front" style="text;html=1;resizable=0;autosize=1;align=center;verticalAlign=middle;points=[];fillColor=none;strokeColor=none;rounded=0;fontSize=12;labelBackgroundColor=default;" parent="SyALjqZVbwJZsE9M6Zfd-1" vertex="1">
          <mxGeometry x="119" y="460" width="80" height="30" as="geometry" />
        </mxCell>
        <mxCell id="UEzPUAAOIrF-is8g5C7q-111" value="Amazon &lt;br&gt;Cognito" style="outlineConnect=0;fontColor=#232F3E;gradientColor=#F54749;gradientDirection=north;fillColor=#C7131F;strokeColor=#ffffff;dashed=0;verticalLabelPosition=bottom;verticalAlign=top;align=center;html=1;fontSize=12;fontStyle=0;aspect=fixed;shape=mxgraph.aws4.resourceIcon;resIcon=mxgraph.aws4.cognito;labelBackgroundColor=#ffffff;" parent="SyALjqZVbwJZsE9M6Zfd-1" vertex="1">
          <mxGeometry x="120" y="110" width="78" height="78" as="geometry" />
        </mxCell>
        <mxCell id="UEzPUAAOIrF-is8g5C7q-113" value="Lambda" style="outlineConnect=0;fontColor=#232F3E;gradientColor=#F78E04;gradientDirection=north;fillColor=#D05C17;strokeColor=#ffffff;dashed=0;verticalLabelPosition=bottom;verticalAlign=top;align=center;html=1;fontSize=12;fontStyle=0;aspect=fixed;shape=mxgraph.aws4.resourceIcon;resIcon=mxgraph.aws4.lambda;labelBackgroundColor=#ffffff;spacingTop=3;" parent="SyALjqZVbwJZsE9M6Zfd-1" vertex="1">
          <mxGeometry x="400" y="200" width="78" height="78" as="geometry" />
        </mxCell>
        <mxCell id="UEzPUAAOIrF-is8g5C7q-114" value="Amazon API&lt;br&gt;Gateway&lt;br&gt;" style="outlineConnect=0;fontColor=#232F3E;gradientColor=#945DF2;gradientDirection=north;fillColor=#5A30B5;strokeColor=#ffffff;dashed=0;verticalLabelPosition=bottom;verticalAlign=top;align=center;html=1;fontSize=12;fontStyle=0;aspect=fixed;shape=mxgraph.aws4.resourceIcon;resIcon=mxgraph.aws4.api_gateway;labelBackgroundColor=#ffffff;" parent="SyALjqZVbwJZsE9M6Zfd-1" vertex="1">
          <mxGeometry x="280" y="110" width="78" height="78" as="geometry" />
        </mxCell>
        <mxCell id="UEzPUAAOIrF-is8g5C7q-126" style="edgeStyle=orthogonalEdgeStyle;rounded=0;orthogonalLoop=1;jettySize=auto;html=1;startArrow=open;startFill=0;endArrow=open;endFill=0;strokeWidth=2;strokeColor=#808080;" parent="SyALjqZVbwJZsE9M6Zfd-1" source="UEzPUAAOIrF-is8g5C7q-113" target="UEzPUAAOIrF-is8g5C7q-114" edge="1">
          <mxGeometry relative="1" as="geometry">
            <Array as="points">
              <mxPoint x="439" y="160" />
            </Array>
          </mxGeometry>
        </mxCell>
        <mxCell id="UEzPUAAOIrF-is8g5C7q-141" style="edgeStyle=orthogonalEdgeStyle;rounded=0;orthogonalLoop=1;jettySize=auto;html=1;startArrow=open;startFill=0;endArrow=open;endFill=0;strokeWidth=2;strokeColor=#808080;" parent="SyALjqZVbwJZsE9M6Zfd-1" source="UEzPUAAOIrF-is8g5C7q-113" target="UEzPUAAOIrF-is8g5C7q-114" edge="1">
          <mxGeometry relative="1" as="geometry">
            <mxPoint x="421" y="119.66413793103453" as="sourcePoint" />
            <mxPoint x="338.9655172413793" y="206.94" as="targetPoint" />
            <Array as="points">
              <mxPoint x="450" y="150" />
            </Array>
          </mxGeometry>
        </mxCell>
        <mxCell id="UEzPUAAOIrF-is8g5C7q-115" value="Lambda&lt;br&gt;function 1" style="outlineConnect=0;fontColor=#232F3E;gradientColor=none;fillColor=#D05C17;strokeColor=none;dashed=0;verticalLabelPosition=bottom;verticalAlign=top;align=center;html=1;fontSize=12;fontStyle=0;aspect=fixed;pointerEvents=1;shape=mxgraph.aws4.lambda_function;labelBackgroundColor=#ffffff;" parent="SyALjqZVbwJZsE9M6Zfd-1" vertex="1">
          <mxGeometry x="710" y="170" width="78" height="78" as="geometry" />
        </mxCell>
        <mxCell id="UEzPUAAOIrF-is8g5C7q-129" style="edgeStyle=orthogonalEdgeStyle;rounded=0;orthogonalLoop=1;jettySize=auto;html=1;startArrow=open;startFill=0;endArrow=open;endFill=0;strokeWidth=2;strokeColor=#808080;" parent="SyALjqZVbwJZsE9M6Zfd-1" source="UEzPUAAOIrF-is8g5C7q-114" target="UEzPUAAOIrF-is8g5C7q-115" edge="1">
          <mxGeometry relative="1" as="geometry">
            <Array as="points">
              <mxPoint x="740" y="140" />
            </Array>
          </mxGeometry>
        </mxCell>
        <mxCell id="UEzPUAAOIrF-is8g5C7q-142" style="edgeStyle=orthogonalEdgeStyle;rounded=0;orthogonalLoop=1;jettySize=auto;html=1;startArrow=open;startFill=0;endArrow=open;endFill=0;strokeWidth=2;strokeColor=#808080;" parent="SyALjqZVbwJZsE9M6Zfd-1" source="UEzPUAAOIrF-is8g5C7q-114" target="UEzPUAAOIrF-is8g5C7q-115" edge="1">
          <mxGeometry relative="1" as="geometry">
            <mxPoint x="378" y="245.94" as="sourcePoint" />
            <mxPoint x="511" y="245.94" as="targetPoint" />
            <Array as="points">
              <mxPoint x="750" y="130" />
            </Array>
          </mxGeometry>
        </mxCell>
        <mxCell id="UEzPUAAOIrF-is8g5C7q-119" value="Amazon&lt;br&gt;DynamoDB&lt;br&gt;" style="outlineConnect=0;fontColor=#232F3E;gradientColor=#4D72F3;gradientDirection=north;fillColor=#3334B9;strokeColor=#ffffff;dashed=0;verticalLabelPosition=bottom;verticalAlign=top;align=center;html=1;fontSize=12;fontStyle=0;aspect=fixed;shape=mxgraph.aws4.resourceIcon;resIcon=mxgraph.aws4.dynamodb;labelBackgroundColor=#ffffff;spacingTop=5;" parent="SyALjqZVbwJZsE9M6Zfd-1" vertex="1">
          <mxGeometry x="1030.0000000000002" y="70.94" width="78" height="78" as="geometry" />
        </mxCell>
        <mxCell id="UEzPUAAOIrF-is8g5C7q-132" style="edgeStyle=orthogonalEdgeStyle;rounded=0;orthogonalLoop=1;jettySize=auto;html=1;startArrow=open;startFill=0;endArrow=open;endFill=0;strokeWidth=2;strokeColor=#808080;" parent="SyALjqZVbwJZsE9M6Zfd-1" source="UEzPUAAOIrF-is8g5C7q-115" target="UEzPUAAOIrF-is8g5C7q-119" edge="1">
          <mxGeometry relative="1" as="geometry">
            <Array as="points">
              <mxPoint x="960" y="190" />
              <mxPoint x="960" y="110" />
            </Array>
          </mxGeometry>
        </mxCell>
        <mxCell id="UEzPUAAOIrF-is8g5C7q-121" value="Amazon&lt;br&gt;CloudWatch&lt;br&gt;" style="outlineConnect=0;fontColor=#232F3E;gradientColor=#F34482;gradientDirection=north;fillColor=#BC1356;strokeColor=#ffffff;dashed=0;verticalLabelPosition=bottom;verticalAlign=top;align=center;html=1;fontSize=12;fontStyle=0;aspect=fixed;shape=mxgraph.aws4.resourceIcon;resIcon=mxgraph.aws4.cloudwatch;labelBackgroundColor=#ffffff;" parent="SyALjqZVbwJZsE9M6Zfd-1" vertex="1">
          <mxGeometry x="1030.0000000000002" y="200" width="78" height="78" as="geometry" />
        </mxCell>
        <mxCell id="UEzPUAAOIrF-is8g5C7q-122" value="IAM Roles" style="outlineConnect=0;fontColor=#232F3E;gradientColor=none;fillColor=#C7131F;strokeColor=none;dashed=0;verticalLabelPosition=bottom;verticalAlign=top;align=center;html=1;fontSize=12;fontStyle=0;aspect=fixed;pointerEvents=1;shape=mxgraph.aws4.role;labelBackgroundColor=#ffffff;" parent="SyALjqZVbwJZsE9M6Zfd-1" vertex="1">
          <mxGeometry x="1030.0000000000002" y="320" width="78" height="44" as="geometry" />
        </mxCell>
        <mxCell id="UEzPUAAOIrF-is8g5C7q-123" value="Amazon&lt;br&gt;CloudWatch Logs&lt;br&gt;" style="outlineConnect=0;fontColor=#232F3E;gradientColor=none;gradientDirection=north;fillColor=#F34482;strokeColor=none;dashed=0;verticalLabelPosition=bottom;verticalAlign=top;align=center;html=1;fontSize=12;fontStyle=0;aspect=fixed;shape=mxgraph.aws4.cloudwatch;labelBackgroundColor=#ffffff;" parent="SyALjqZVbwJZsE9M6Zfd-1" vertex="1">
          <mxGeometry x="1030.0000000000002" y="382" width="78" height="78" as="geometry" />
        </mxCell>
        <mxCell id="UEzPUAAOIrF-is8g5C7q-134" style="edgeStyle=orthogonalEdgeStyle;rounded=0;orthogonalLoop=1;jettySize=auto;html=1;startArrow=open;startFill=0;endArrow=open;endFill=0;strokeWidth=2;strokeColor=#808080;" parent="SyALjqZVbwJZsE9M6Zfd-1" source="UEzPUAAOIrF-is8g5C7q-115" target="UEzPUAAOIrF-is8g5C7q-121" edge="1">
          <mxGeometry relative="1" as="geometry">
            <Array as="points">
              <mxPoint x="960" y="200" />
              <mxPoint x="960" y="240" />
            </Array>
          </mxGeometry>
        </mxCell>
        <mxCell id="UEzPUAAOIrF-is8g5C7q-135" style="edgeStyle=orthogonalEdgeStyle;rounded=0;orthogonalLoop=1;jettySize=auto;html=1;startArrow=open;startFill=0;endArrow=open;endFill=0;strokeWidth=2;strokeColor=#808080;" parent="SyALjqZVbwJZsE9M6Zfd-1" source="UEzPUAAOIrF-is8g5C7q-115" target="UEzPUAAOIrF-is8g5C7q-122" edge="1">
          <mxGeometry relative="1" as="geometry">
            <Array as="points">
              <mxPoint x="950" y="210" />
              <mxPoint x="950" y="342" />
            </Array>
          </mxGeometry>
        </mxCell>
        <mxCell id="UEzPUAAOIrF-is8g5C7q-136" style="edgeStyle=orthogonalEdgeStyle;rounded=0;orthogonalLoop=1;jettySize=auto;html=1;startArrow=open;startFill=0;endArrow=open;endFill=0;strokeWidth=2;strokeColor=#808080;" parent="SyALjqZVbwJZsE9M6Zfd-1" source="UEzPUAAOIrF-is8g5C7q-115" target="UEzPUAAOIrF-is8g5C7q-123" edge="1">
          <mxGeometry relative="1" as="geometry">
            <Array as="points">
              <mxPoint x="940" y="220" />
              <mxPoint x="940" y="420" />
            </Array>
          </mxGeometry>
        </mxCell>
        <mxCell id="UEzPUAAOIrF-is8g5C7q-116" value="Amazon S3" style="outlineConnect=0;fontColor=#232F3E;gradientColor=#60A337;gradientDirection=north;fillColor=#277116;strokeColor=#ffffff;dashed=0;verticalLabelPosition=bottom;verticalAlign=top;align=center;html=1;fontSize=12;fontStyle=0;aspect=fixed;shape=mxgraph.aws4.resourceIcon;resIcon=mxgraph.aws4.s3;labelBackgroundColor=#ffffff;" parent="SyALjqZVbwJZsE9M6Zfd-1" vertex="1">
          <mxGeometry x="520.0000000000002" y="330" width="78" height="78" as="geometry" />
        </mxCell>
        <mxCell id="SyALjqZVbwJZsE9M6Zfd-11" style="edgeStyle=orthogonalEdgeStyle;rounded=0;orthogonalLoop=1;jettySize=auto;html=1;startArrow=open;startFill=0;endArrow=open;endFill=0;strokeWidth=2;strokeColor=#808080;" parent="SyALjqZVbwJZsE9M6Zfd-1" edge="1">
          <mxGeometry relative="1" as="geometry">
            <mxPoint x="280" y="130" as="sourcePoint" />
            <mxPoint x="197.99999999999977" y="130" as="targetPoint" />
            <Array as="points">
              <mxPoint x="230" y="130" />
              <mxPoint x="230" y="130" />
            </Array>
          </mxGeometry>
        </mxCell>
        <mxCell id="SyALjqZVbwJZsE9M6Zfd-12" style="edgeStyle=orthogonalEdgeStyle;rounded=0;orthogonalLoop=1;jettySize=auto;html=1;startArrow=open;startFill=0;endArrow=open;endFill=0;strokeWidth=2;strokeColor=#808080;" parent="SyALjqZVbwJZsE9M6Zfd-1" edge="1">
          <mxGeometry relative="1" as="geometry">
            <mxPoint x="280" y="140" as="sourcePoint" />
            <mxPoint x="197.99999999999977" y="140" as="targetPoint" />
            <Array as="points">
              <mxPoint x="230" y="140" />
              <mxPoint x="230" y="140" />
            </Array>
          </mxGeometry>
        </mxCell>
        <mxCell id="SyALjqZVbwJZsE9M6Zfd-13" style="edgeStyle=orthogonalEdgeStyle;rounded=0;orthogonalLoop=1;jettySize=auto;html=1;startArrow=open;startFill=0;endArrow=open;endFill=0;strokeWidth=2;strokeColor=#808080;" parent="SyALjqZVbwJZsE9M6Zfd-1" source="UEzPUAAOIrF-is8g5C7q-116" target="UEzPUAAOIrF-is8g5C7q-113" edge="1">
          <mxGeometry relative="1" as="geometry">
            <mxPoint x="570" y="278" as="sourcePoint" />
            <mxPoint x="478" y="228" as="targetPoint" />
            <Array as="points">
              <mxPoint x="560" y="240" />
            </Array>
          </mxGeometry>
        </mxCell>
        <mxCell id="SyALjqZVbwJZsE9M6Zfd-16" style="edgeStyle=orthogonalEdgeStyle;rounded=0;orthogonalLoop=1;jettySize=auto;html=1;startArrow=open;startFill=0;endArrow=open;endFill=0;strokeWidth=2;strokeColor=#808080;" parent="SyALjqZVbwJZsE9M6Zfd-1" source="UEzPUAAOIrF-is8g5C7q-116" edge="1">
          <mxGeometry relative="1" as="geometry">
            <mxPoint x="570" y="320" as="sourcePoint" />
            <mxPoint x="478" y="230" as="targetPoint" />
            <Array as="points">
              <mxPoint x="570" y="230" />
            </Array>
          </mxGeometry>
        </mxCell>
        <mxCell id="SyALjqZVbwJZsE9M6Zfd-17" style="edgeStyle=orthogonalEdgeStyle;rounded=0;orthogonalLoop=1;jettySize=auto;html=1;startArrow=open;startFill=0;endArrow=open;endFill=0;strokeWidth=2;strokeColor=#808080;" parent="SyALjqZVbwJZsE9M6Zfd-1" source="UEzPUAAOIrF-is8g5C7q-114" target="SyALjqZVbwJZsE9M6Zfd-2" edge="1">
          <mxGeometry relative="1" as="geometry">
            <mxPoint x="272" y="290" as="sourcePoint" />
            <mxPoint x="189.99999999999977" y="290" as="targetPoint" />
            <Array as="points">
              <mxPoint x="250" y="160" />
              <mxPoint x="250" y="400" />
            </Array>
          </mxGeometry>
        </mxCell>
        <mxCell id="SyALjqZVbwJZsE9M6Zfd-21" style="edgeStyle=orthogonalEdgeStyle;rounded=0;orthogonalLoop=1;jettySize=auto;html=1;startArrow=open;startFill=0;endArrow=open;endFill=0;strokeWidth=2;strokeColor=#808080;entryX=1;entryY=0.5;entryDx=0;entryDy=0;entryPerimeter=0;" parent="SyALjqZVbwJZsE9M6Zfd-1" source="UEzPUAAOIrF-is8g5C7q-114" target="SyALjqZVbwJZsE9M6Zfd-2" edge="1">
          <mxGeometry relative="1" as="geometry">
            <mxPoint x="270" y="148.94" as="sourcePoint" />
            <mxPoint x="190" y="418.94000000000005" as="targetPoint" />
            <Array as="points">
              <mxPoint x="240" y="149" />
              <mxPoint x="240" y="390" />
            </Array>
          </mxGeometry>
        </mxCell>
        <mxCell id="SyALjqZVbwJZsE9M6Zfd-22" style="edgeStyle=orthogonalEdgeStyle;rounded=0;orthogonalLoop=1;jettySize=auto;html=1;startArrow=open;startFill=0;endArrow=open;endFill=0;strokeWidth=2;strokeColor=#808080;" parent="SyALjqZVbwJZsE9M6Zfd-1" source="UEzPUAAOIrF-is8g5C7q-116" target="SyALjqZVbwJZsE9M6Zfd-2" edge="1">
          <mxGeometry relative="1" as="geometry">
            <mxPoint x="282" y="413.5799999999999" as="sourcePoint" />
            <mxPoint x="220" y="414" as="targetPoint" />
            <Array as="points">
              <mxPoint x="260" y="350" />
              <mxPoint x="260" y="414" />
            </Array>
          </mxGeometry>
        </mxCell>
        <mxCell id="SyALjqZVbwJZsE9M6Zfd-24" style="edgeStyle=orthogonalEdgeStyle;rounded=0;orthogonalLoop=1;jettySize=auto;html=1;startArrow=open;startFill=0;endArrow=open;endFill=0;strokeWidth=2;strokeColor=#808080;" parent="SyALjqZVbwJZsE9M6Zfd-1" edge="1">
          <mxGeometry relative="1" as="geometry">
            <mxPoint x="520" y="360" as="sourcePoint" />
            <mxPoint x="200" y="424" as="targetPoint" />
            <Array as="points">
              <mxPoint x="520" y="360" />
              <mxPoint x="270" y="360" />
              <mxPoint x="270" y="424" />
            </Array>
          </mxGeometry>
        </mxCell>
        <mxCell id="SyALjqZVbwJZsE9M6Zfd-25" value="" style="sketch=0;points=[[0,0,0],[0.25,0,0],[0.5,0,0],[0.75,0,0],[1,0,0],[0,1,0],[0.25,1,0],[0.5,1,0],[0.75,1,0],[1,1,0],[0,0.25,0],[0,0.5,0],[0,0.75,0],[1,0.25,0],[1,0.5,0],[1,0.75,0]];outlineConnect=0;fontColor=#232F3E;gradientColor=#FF4F8B;gradientDirection=north;fillColor=#BC1356;strokeColor=#ffffff;dashed=0;verticalLabelPosition=bottom;verticalAlign=top;align=center;html=1;fontSize=12;fontStyle=0;aspect=fixed;shape=mxgraph.aws4.resourceIcon;resIcon=mxgraph.aws4.sqs;labelBackgroundColor=default;" parent="SyALjqZVbwJZsE9M6Zfd-1" vertex="1">
          <mxGeometry x="710" y="330" width="78" height="78" as="geometry" />
        </mxCell>
        <mxCell id="SyALjqZVbwJZsE9M6Zfd-26" value="Amazon &lt;br&gt;Simple Queue Service" style="text;html=1;resizable=0;autosize=1;align=center;verticalAlign=middle;points=[];fillColor=none;strokeColor=none;rounded=0;fontSize=12;labelBackgroundColor=default;" parent="SyALjqZVbwJZsE9M6Zfd-1" vertex="1">
          <mxGeometry x="683" y="420" width="130" height="30" as="geometry" />
        </mxCell>
        <mxCell id="SyALjqZVbwJZsE9M6Zfd-27" style="edgeStyle=orthogonalEdgeStyle;rounded=0;orthogonalLoop=1;jettySize=auto;html=1;startArrow=open;startFill=0;endArrow=open;endFill=0;strokeWidth=2;strokeColor=#808080;exitX=0;exitY=0.25;exitDx=0;exitDy=0;exitPerimeter=0;" parent="SyALjqZVbwJZsE9M6Zfd-1" source="SyALjqZVbwJZsE9M6Zfd-25" edge="1">
          <mxGeometry relative="1" as="geometry">
            <mxPoint x="680" y="349.99999999999994" as="sourcePoint" />
            <mxPoint x="597.9999999999998" y="349.99999999999994" as="targetPoint" />
            <Array as="points">
              <mxPoint x="630" y="349" />
            </Array>
          </mxGeometry>
        </mxCell>
        <mxCell id="SyALjqZVbwJZsE9M6Zfd-28" style="edgeStyle=orthogonalEdgeStyle;rounded=0;orthogonalLoop=1;jettySize=auto;html=1;startArrow=open;startFill=0;endArrow=open;endFill=0;strokeWidth=2;strokeColor=#808080;exitX=0;exitY=0.25;exitDx=0;exitDy=0;exitPerimeter=0;" parent="SyALjqZVbwJZsE9M6Zfd-1" edge="1">
          <mxGeometry relative="1" as="geometry">
            <mxPoint x="710" y="364.02" as="sourcePoint" />
            <mxPoint x="597.9999999999998" y="364.52" as="targetPoint" />
            <Array as="points">
              <mxPoint x="630" y="363.52" />
            </Array>
          </mxGeometry>
        </mxCell>
        <mxCell id="SyALjqZVbwJZsE9M6Zfd-29" value="" style="sketch=0;points=[[0,0,0],[0.25,0,0],[0.5,0,0],[0.75,0,0],[1,0,0],[0,1,0],[0.25,1,0],[0.5,1,0],[0.75,1,0],[1,1,0],[0,0.25,0],[0,0.5,0],[0,0.75,0],[1,0.25,0],[1,0.5,0],[1,0.75,0]];outlineConnect=0;fontColor=#232F3E;gradientColor=#F78E04;gradientDirection=north;fillColor=#D05C17;strokeColor=#ffffff;dashed=0;verticalLabelPosition=bottom;verticalAlign=top;align=center;html=1;fontSize=12;fontStyle=0;aspect=fixed;shape=mxgraph.aws4.resourceIcon;resIcon=mxgraph.aws4.elastic_transcoder;labelBackgroundColor=default;" parent="SyALjqZVbwJZsE9M6Zfd-1" vertex="1">
          <mxGeometry x="520" y="470" width="78" height="78" as="geometry" />
        </mxCell>
        <mxCell id="SyALjqZVbwJZsE9M6Zfd-30" value="Amazon &lt;br&gt;Elastic Transcoder" style="text;html=1;resizable=0;autosize=1;align=center;verticalAlign=middle;points=[];fillColor=none;strokeColor=none;rounded=0;fontSize=12;labelBackgroundColor=default;" parent="SyALjqZVbwJZsE9M6Zfd-1" vertex="1">
          <mxGeometry x="504" y="560" width="110" height="30" as="geometry" />
        </mxCell>
        <mxCell id="SyALjqZVbwJZsE9M6Zfd-33" value="Lambda&lt;br&gt;function 2" style="outlineConnect=0;fontColor=#232F3E;gradientColor=none;fillColor=#D05C17;strokeColor=none;dashed=0;verticalLabelPosition=bottom;verticalAlign=top;align=center;html=1;fontSize=12;fontStyle=0;aspect=fixed;pointerEvents=1;shape=mxgraph.aws4.lambda_function;labelBackgroundColor=#ffffff;" parent="SyALjqZVbwJZsE9M6Zfd-1" vertex="1">
          <mxGeometry x="709" y="470" width="78" height="78" as="geometry" />
        </mxCell>
        <mxCell id="SyALjqZVbwJZsE9M6Zfd-34" value="Lambda&lt;br&gt;function 3" style="outlineConnect=0;fontColor=#232F3E;gradientColor=none;fillColor=#D05C17;strokeColor=none;dashed=0;verticalLabelPosition=bottom;verticalAlign=top;align=center;html=1;fontSize=12;fontStyle=0;aspect=fixed;pointerEvents=1;shape=mxgraph.aws4.lambda_function;labelBackgroundColor=#ffffff;" parent="SyALjqZVbwJZsE9M6Zfd-1" vertex="1">
          <mxGeometry x="520" y="612" width="78" height="78" as="geometry" />
        </mxCell>
        <mxCell id="SyALjqZVbwJZsE9M6Zfd-35" value="" style="sketch=0;points=[[0,0,0],[0.25,0,0],[0.5,0,0],[0.75,0,0],[1,0,0],[0,1,0],[0.25,1,0],[0.5,1,0],[0.75,1,0],[1,1,0],[0,0.25,0],[0,0.5,0],[0,0.75,0],[1,0.25,0],[1,0.5,0],[1,0.75,0]];outlineConnect=0;fontColor=#232F3E;gradientColor=#FF4F8B;gradientDirection=north;fillColor=#BC1356;strokeColor=#ffffff;dashed=0;verticalLabelPosition=bottom;verticalAlign=top;align=center;html=1;fontSize=12;fontStyle=0;aspect=fixed;shape=mxgraph.aws4.resourceIcon;resIcon=mxgraph.aws4.sqs;labelBackgroundColor=default;" parent="SyALjqZVbwJZsE9M6Zfd-1" vertex="1">
          <mxGeometry x="710" y="606" width="78" height="78" as="geometry" />
        </mxCell>
        <mxCell id="SyALjqZVbwJZsE9M6Zfd-36" value="Amazon &lt;br&gt;Simple Queue Service" style="text;html=1;resizable=0;autosize=1;align=center;verticalAlign=middle;points=[];fillColor=none;strokeColor=none;rounded=0;fontSize=12;labelBackgroundColor=default;" parent="SyALjqZVbwJZsE9M6Zfd-1" vertex="1">
          <mxGeometry x="690" y="690" width="130" height="30" as="geometry" />
        </mxCell>
        <mxCell id="SyALjqZVbwJZsE9M6Zfd-37" style="edgeStyle=orthogonalEdgeStyle;rounded=0;orthogonalLoop=1;jettySize=auto;html=1;startArrow=open;startFill=0;endArrow=open;endFill=0;strokeWidth=2;strokeColor=#808080;exitX=0;exitY=0.25;exitDx=0;exitDy=0;exitPerimeter=0;" parent="SyALjqZVbwJZsE9M6Zfd-1" target="SyALjqZVbwJZsE9M6Zfd-33" edge="1">
          <mxGeometry relative="1" as="geometry">
            <mxPoint x="708.9999999999995" y="374.02" as="sourcePoint" />
            <mxPoint x="597" y="374.5200000000002" as="targetPoint" />
            <Array as="points">
              <mxPoint x="660" y="374" />
              <mxPoint x="660" y="500" />
            </Array>
          </mxGeometry>
        </mxCell>
        <mxCell id="SyALjqZVbwJZsE9M6Zfd-43" value="" style="endArrow=classic;html=1;rounded=0;fontSize=12;strokeColor=#808080;strokeWidth=2;exitX=0.953;exitY=0.372;exitDx=0;exitDy=0;exitPerimeter=0;" parent="SyALjqZVbwJZsE9M6Zfd-1" source="SyALjqZVbwJZsE9M6Zfd-33" target="UEzPUAAOIrF-is8g5C7q-119" edge="1">
          <mxGeometry width="50" height="50" relative="1" as="geometry">
            <mxPoint x="790" y="500" as="sourcePoint" />
            <mxPoint x="1117.9999999999995" y="441.0000000000002" as="targetPoint" />
            <Array as="points">
              <mxPoint x="1200" y="500" />
              <mxPoint x="1200" y="110" />
            </Array>
          </mxGeometry>
        </mxCell>
        <mxCell id="SyALjqZVbwJZsE9M6Zfd-49" style="edgeStyle=orthogonalEdgeStyle;rounded=0;orthogonalLoop=1;jettySize=auto;html=1;startArrow=open;startFill=0;endArrow=open;endFill=0;strokeWidth=2;strokeColor=#808080;" parent="SyALjqZVbwJZsE9M6Zfd-1" source="SyALjqZVbwJZsE9M6Zfd-33" target="SyALjqZVbwJZsE9M6Zfd-35" edge="1">
          <mxGeometry relative="1" as="geometry">
            <mxPoint x="710" y="520" as="sourcePoint" />
            <mxPoint x="627.9999999999998" y="530" as="targetPoint" />
            <Array as="points">
              <mxPoint x="870" y="520" />
              <mxPoint x="870" y="630" />
            </Array>
          </mxGeometry>
        </mxCell>
        <mxCell id="SyALjqZVbwJZsE9M6Zfd-47" style="edgeStyle=orthogonalEdgeStyle;rounded=0;orthogonalLoop=1;jettySize=auto;html=1;startArrow=open;startFill=0;endArrow=open;endFill=0;strokeWidth=2;strokeColor=#808080;" parent="SyALjqZVbwJZsE9M6Zfd-1" source="SyALjqZVbwJZsE9M6Zfd-33" target="UEzPUAAOIrF-is8g5C7q-116" edge="1">
          <mxGeometry relative="1" as="geometry">
            <mxPoint x="710" y="520" as="sourcePoint" />
            <mxPoint x="608.0000000000002" y="390" as="targetPoint" />
            <Array as="points">
              <mxPoint x="650" y="509" />
              <mxPoint x="650" y="390" />
            </Array>
          </mxGeometry>
        </mxCell>
        <mxCell id="SyALjqZVbwJZsE9M6Zfd-51" style="edgeStyle=orthogonalEdgeStyle;rounded=0;orthogonalLoop=1;jettySize=auto;html=1;startArrow=open;startFill=0;endArrow=open;endFill=0;strokeWidth=2;strokeColor=#808080;" parent="SyALjqZVbwJZsE9M6Zfd-1" source="SyALjqZVbwJZsE9M6Zfd-33" target="SyALjqZVbwJZsE9M6Zfd-35" edge="1">
          <mxGeometry relative="1" as="geometry">
            <mxPoint x="710" y="530" as="sourcePoint" />
            <mxPoint x="810" y="650" as="targetPoint" />
            <Array as="points">
              <mxPoint x="880" y="509" />
              <mxPoint x="880" y="650" />
            </Array>
          </mxGeometry>
        </mxCell>
        <mxCell id="SyALjqZVbwJZsE9M6Zfd-54" value="" style="endArrow=classic;html=1;rounded=0;fontSize=12;strokeColor=#808080;strokeWidth=2;" parent="SyALjqZVbwJZsE9M6Zfd-1" edge="1">
          <mxGeometry width="50" height="50" relative="1" as="geometry">
            <mxPoint x="1200" y="350" as="sourcePoint" />
            <mxPoint x="1108" y="350" as="targetPoint" />
            <Array as="points">
              <mxPoint x="1150" y="350" />
            </Array>
          </mxGeometry>
        </mxCell>
        <mxCell id="SyALjqZVbwJZsE9M6Zfd-55" value="" style="endArrow=classic;html=1;rounded=0;fontSize=12;strokeColor=#808080;strokeWidth=2;" parent="SyALjqZVbwJZsE9M6Zfd-1" edge="1">
          <mxGeometry width="50" height="50" relative="1" as="geometry">
            <mxPoint x="1200" y="420.68000000000006" as="sourcePoint" />
            <mxPoint x="1108" y="420.68000000000006" as="targetPoint" />
            <Array as="points">
              <mxPoint x="1150" y="420.68000000000006" />
            </Array>
          </mxGeometry>
        </mxCell>
        <mxCell id="SyALjqZVbwJZsE9M6Zfd-56" style="edgeStyle=orthogonalEdgeStyle;rounded=0;orthogonalLoop=1;jettySize=auto;html=1;startArrow=open;startFill=0;endArrow=open;endFill=0;strokeWidth=2;strokeColor=#808080;exitX=0;exitY=0.25;exitDx=0;exitDy=0;exitPerimeter=0;" parent="SyALjqZVbwJZsE9M6Zfd-1" edge="1">
          <mxGeometry relative="1" as="geometry">
            <mxPoint x="710" y="646" as="sourcePoint" />
            <mxPoint x="598" y="646.5" as="targetPoint" />
            <Array as="points">
              <mxPoint x="630" y="645.5" />
            </Array>
          </mxGeometry>
        </mxCell>
        <mxCell id="SyALjqZVbwJZsE9M6Zfd-57" style="edgeStyle=orthogonalEdgeStyle;rounded=0;orthogonalLoop=1;jettySize=auto;html=1;startArrow=open;startFill=0;endArrow=open;endFill=0;strokeWidth=2;strokeColor=#808080;exitX=0;exitY=0.25;exitDx=0;exitDy=0;exitPerimeter=0;" parent="SyALjqZVbwJZsE9M6Zfd-1" edge="1">
          <mxGeometry relative="1" as="geometry">
            <mxPoint x="710" y="660" as="sourcePoint" />
            <mxPoint x="598" y="660.5" as="targetPoint" />
            <Array as="points">
              <mxPoint x="630" y="659.5" />
            </Array>
          </mxGeometry>
        </mxCell>
        <mxCell id="SyALjqZVbwJZsE9M6Zfd-59" style="edgeStyle=orthogonalEdgeStyle;rounded=0;orthogonalLoop=1;jettySize=auto;html=1;startArrow=open;startFill=0;endArrow=open;endFill=0;strokeWidth=2;strokeColor=#808080;" parent="SyALjqZVbwJZsE9M6Zfd-1" edge="1">
          <mxGeometry relative="1" as="geometry">
            <mxPoint x="520" y="530" as="sourcePoint" />
            <mxPoint x="519" y="650" as="targetPoint" />
            <Array as="points">
              <mxPoint x="470" y="530" />
              <mxPoint x="470" y="650" />
            </Array>
          </mxGeometry>
        </mxCell>
        <mxCell id="SyALjqZVbwJZsE9M6Zfd-60" style="edgeStyle=orthogonalEdgeStyle;rounded=0;orthogonalLoop=1;jettySize=auto;html=1;startArrow=open;startFill=0;endArrow=open;endFill=0;strokeWidth=2;strokeColor=#808080;" parent="SyALjqZVbwJZsE9M6Zfd-1" target="SyALjqZVbwJZsE9M6Zfd-34" edge="1">
          <mxGeometry relative="1" as="geometry">
            <mxPoint x="520" y="520" as="sourcePoint" />
            <mxPoint x="520" y="670" as="targetPoint" />
            <Array as="points">
              <mxPoint x="460" y="520" />
              <mxPoint x="460" y="660" />
            </Array>
          </mxGeometry>
        </mxCell>
        <mxCell id="SyALjqZVbwJZsE9M6Zfd-61" style="edgeStyle=orthogonalEdgeStyle;rounded=0;orthogonalLoop=1;jettySize=auto;html=1;startArrow=open;startFill=0;endArrow=open;endFill=0;strokeWidth=2;strokeColor=#808080;" parent="SyALjqZVbwJZsE9M6Zfd-1" edge="1">
          <mxGeometry relative="1" as="geometry">
            <mxPoint x="520" y="370" as="sourcePoint" />
            <mxPoint x="520" y="510" as="targetPoint" />
            <Array as="points">
              <mxPoint x="460" y="370" />
              <mxPoint x="460" y="510" />
              <mxPoint x="519" y="510" />
            </Array>
          </mxGeometry>
        </mxCell>
        <mxCell id="SyALjqZVbwJZsE9M6Zfd-63" style="edgeStyle=orthogonalEdgeStyle;rounded=0;orthogonalLoop=1;jettySize=auto;html=1;startArrow=open;startFill=0;endArrow=open;endFill=0;strokeWidth=2;strokeColor=#808080;" parent="SyALjqZVbwJZsE9M6Zfd-1" edge="1">
          <mxGeometry relative="1" as="geometry">
            <mxPoint x="520" y="380" as="sourcePoint" />
            <mxPoint x="520" y="500" as="targetPoint" />
            <Array as="points">
              <mxPoint x="520" y="380" />
              <mxPoint x="470" y="380" />
              <mxPoint x="470" y="500" />
            </Array>
          </mxGeometry>
        </mxCell>
        <mxCell id="SyALjqZVbwJZsE9M6Zfd-64" style="edgeStyle=orthogonalEdgeStyle;rounded=0;orthogonalLoop=1;jettySize=auto;html=1;startArrow=open;startFill=0;endArrow=open;endFill=0;strokeWidth=2;strokeColor=#808080;" parent="SyALjqZVbwJZsE9M6Zfd-1" source="SyALjqZVbwJZsE9M6Zfd-2" target="UEzPUAAOIrF-is8g5C7q-111" edge="1">
          <mxGeometry relative="1" as="geometry">
            <mxPoint x="290" y="150" as="sourcePoint" />
            <mxPoint x="207.99999999999977" y="150" as="targetPoint" />
            <Array as="points">
              <mxPoint x="170" y="350" />
              <mxPoint x="230" y="350" />
              <mxPoint x="230" y="150" />
            </Array>
          </mxGeometry>
        </mxCell>
        <mxCell id="SyALjqZVbwJZsE9M6Zfd-65" style="edgeStyle=orthogonalEdgeStyle;rounded=0;orthogonalLoop=1;jettySize=auto;html=1;startArrow=open;startFill=0;endArrow=open;endFill=0;strokeWidth=2;strokeColor=#808080;" parent="SyALjqZVbwJZsE9M6Zfd-1" source="SyALjqZVbwJZsE9M6Zfd-2" target="UEzPUAAOIrF-is8g5C7q-111" edge="1">
          <mxGeometry relative="1" as="geometry">
            <mxPoint x="160" y="370" as="sourcePoint" />
            <mxPoint x="208" y="159.9999999999999" as="targetPoint" />
            <Array as="points">
              <mxPoint x="160" y="340" />
              <mxPoint x="220" y="340" />
              <mxPoint x="220" y="160" />
            </Array>
          </mxGeometry>
        </mxCell>
        <mxCell id="SyALjqZVbwJZsE9M6Zfd-66" value="" style="sketch=0;points=[[0,0,0],[0.25,0,0],[0.5,0,0],[0.75,0,0],[1,0,0],[0,1,0],[0.25,1,0],[0.5,1,0],[0.75,1,0],[1,1,0],[0,0.25,0],[0,0.5,0],[0,0.75,0],[1,0.25,0],[1,0.5,0],[1,0.75,0]];outlineConnect=0;fontColor=#232F3E;gradientColor=#945DF2;gradientDirection=north;fillColor=#5A30B5;strokeColor=#ffffff;dashed=0;verticalLabelPosition=bottom;verticalAlign=top;align=center;html=1;fontSize=12;fontStyle=0;aspect=fixed;shape=mxgraph.aws4.resourceIcon;resIcon=mxgraph.aws4.route_53;labelBackgroundColor=default;" parent="SyALjqZVbwJZsE9M6Zfd-1" vertex="1">
          <mxGeometry x="119" y="548" width="78" height="78" as="geometry" />
        </mxCell>
        <mxCell id="SyALjqZVbwJZsE9M6Zfd-68" style="edgeStyle=orthogonalEdgeStyle;rounded=0;orthogonalLoop=1;jettySize=auto;html=1;startArrow=open;startFill=0;endArrow=open;endFill=0;strokeWidth=2;strokeColor=#808080;" parent="SyALjqZVbwJZsE9M6Zfd-1" edge="1">
          <mxGeometry relative="1" as="geometry">
            <mxPoint x="119" y="408" as="sourcePoint" />
            <mxPoint x="118" y="584" as="targetPoint" />
            <Array as="points">
              <mxPoint x="70" y="408" />
              <mxPoint x="70" y="584" />
            </Array>
          </mxGeometry>
        </mxCell>
        <mxCell id="SyALjqZVbwJZsE9M6Zfd-69" style="edgeStyle=orthogonalEdgeStyle;rounded=0;orthogonalLoop=1;jettySize=auto;html=1;startArrow=open;startFill=0;endArrow=open;endFill=0;strokeWidth=2;strokeColor=#808080;" parent="SyALjqZVbwJZsE9M6Zfd-1" edge="1">
          <mxGeometry relative="1" as="geometry">
            <mxPoint x="120" y="420" as="sourcePoint" />
            <mxPoint x="120" y="570" as="targetPoint" />
            <Array as="points">
              <mxPoint x="80" y="420" />
              <mxPoint x="80" y="570" />
              <mxPoint x="119" y="570" />
            </Array>
          </mxGeometry>
        </mxCell>
        <mxCell id="SyALjqZVbwJZsE9M6Zfd-70" style="edgeStyle=orthogonalEdgeStyle;rounded=0;orthogonalLoop=1;jettySize=auto;html=1;startArrow=open;startFill=0;endArrow=open;endFill=0;strokeWidth=2;strokeColor=#808080;" parent="SyALjqZVbwJZsE9M6Zfd-1" target="SyALjqZVbwJZsE9M6Zfd-67" edge="1">
          <mxGeometry relative="1" as="geometry">
            <mxPoint x="120" y="600" as="sourcePoint" />
            <mxPoint x="-120" y="580" as="targetPoint" />
            <Array as="points">
              <mxPoint x="-40" y="600" />
              <mxPoint x="-40" y="600" />
            </Array>
          </mxGeometry>
        </mxCell>
        <mxCell id="SyALjqZVbwJZsE9M6Zfd-71" value="Amazon &lt;br&gt;Route 53" style="text;html=1;resizable=0;autosize=1;align=center;verticalAlign=middle;points=[];fillColor=none;strokeColor=none;rounded=0;fontSize=12;labelBackgroundColor=default;" parent="SyALjqZVbwJZsE9M6Zfd-1" vertex="1">
          <mxGeometry x="127" y="636" width="60" height="30" as="geometry" />
        </mxCell>
        <mxCell id="SyALjqZVbwJZsE9M6Zfd-38" style="edgeStyle=orthogonalEdgeStyle;rounded=0;orthogonalLoop=1;jettySize=auto;html=1;startArrow=open;startFill=0;endArrow=open;endFill=0;strokeWidth=2;strokeColor=#808080;" parent="1" target="SyALjqZVbwJZsE9M6Zfd-33" edge="1">
          <mxGeometry relative="1" as="geometry">
            <mxPoint x="970" y="564" as="sourcePoint" />
            <mxPoint x="970" y="660" as="targetPoint" />
            <Array as="points">
              <mxPoint x="930" y="564" />
              <mxPoint x="930" y="670" />
            </Array>
          </mxGeometry>
        </mxCell>
        <mxCell id="SyALjqZVbwJZsE9M6Zfd-53" value="" style="endArrow=classic;html=1;rounded=0;fontSize=12;strokeColor=#808080;strokeWidth=2;" parent="1" target="UEzPUAAOIrF-is8g5C7q-121" edge="1">
          <mxGeometry width="50" height="50" relative="1" as="geometry">
            <mxPoint x="1460" y="419" as="sourcePoint" />
            <mxPoint x="1377.9999999999995" y="299.9578625954198" as="targetPoint" />
            <Array as="points">
              <mxPoint x="1410" y="419" />
            </Array>
          </mxGeometry>
        </mxCell>
        <mxCell id="SyALjqZVbwJZsE9M6Zfd-58" value="" style="endArrow=none;html=1;rounded=0;fontSize=12;strokeColor=#808080;strokeWidth=2;" parent="1" edge="1">
          <mxGeometry width="50" height="50" relative="1" as="geometry">
            <mxPoint x="850" y="850" as="sourcePoint" />
            <mxPoint x="1460" y="680" as="targetPoint" />
            <Array as="points">
              <mxPoint x="880" y="850" />
              <mxPoint x="920" y="850" />
              <mxPoint x="920" y="880" />
              <mxPoint x="920" y="920" />
              <mxPoint x="1460" y="920" />
            </Array>
          </mxGeometry>
        </mxCell>
        <mxCell id="SyALjqZVbwJZsE9M6Zfd-67" value="User" style="sketch=0;outlineConnect=0;fontColor=#232F3E;gradientColor=none;strokeColor=#232F3E;fillColor=#ffffff;dashed=0;verticalLabelPosition=bottom;verticalAlign=top;align=center;html=1;fontSize=12;fontStyle=0;aspect=fixed;shape=mxgraph.aws4.resourceIcon;resIcon=mxgraph.aws4.user;labelBackgroundColor=default;" parent="1" vertex="1">
          <mxGeometry x="90" y="730" width="70" height="70" as="geometry" />
        </mxCell>
        <mxCell id="oiIDUnYNHTpMOxStJqNs-1" value="AWS Cloud" style="points=[[0,0],[0.25,0],[0.5,0],[0.75,0],[1,0],[1,0.25],[1,0.5],[1,0.75],[1,1],[0.75,1],[0.5,1],[0.25,1],[0,1],[0,0.75],[0,0.5],[0,0.25]];outlineConnect=0;gradientColor=none;html=1;whiteSpace=wrap;fontSize=12;fontStyle=0;container=1;pointerEvents=0;collapsible=0;recursiveResize=0;shape=mxgraph.aws4.group;grIcon=mxgraph.aws4.group_aws_cloud_alt;strokeColor=#232F3E;fillColor=none;verticalAlign=top;align=left;spacingLeft=30;fontColor=#232F3E;dashed=0;" vertex="1" parent="1">
          <mxGeometry x="260" y="1090" width="1150" height="840" as="geometry" />
        </mxCell>
        <mxCell id="oiIDUnYNHTpMOxStJqNs-11" value="Availability Zone" style="fillColor=none;strokeColor=#147EBA;dashed=1;verticalAlign=top;fontStyle=0;fontColor=#147EBA;" vertex="1" parent="oiIDUnYNHTpMOxStJqNs-1">
          <mxGeometry x="460" y="170" width="610" height="140" as="geometry" />
        </mxCell>
        <mxCell id="oiIDUnYNHTpMOxStJqNs-2" value="" style="sketch=0;points=[[0,0,0],[0.25,0,0],[0.5,0,0],[0.75,0,0],[1,0,0],[0,1,0],[0.25,1,0],[0.5,1,0],[0.75,1,0],[1,1,0],[0,0.25,0],[0,0.5,0],[0,0.75,0],[1,0.25,0],[1,0.5,0],[1,0.75,0]];outlineConnect=0;fontColor=#232F3E;gradientColor=#945DF2;gradientDirection=north;fillColor=#5A30B5;strokeColor=#ffffff;dashed=0;verticalLabelPosition=bottom;verticalAlign=top;align=center;html=1;fontSize=12;fontStyle=0;aspect=fixed;shape=mxgraph.aws4.resourceIcon;resIcon=mxgraph.aws4.route_53;labelBackgroundColor=default;" vertex="1" parent="oiIDUnYNHTpMOxStJqNs-1">
          <mxGeometry x="81" y="222" width="78" height="78" as="geometry" />
        </mxCell>
        <mxCell id="oiIDUnYNHTpMOxStJqNs-3" value="Amazon &lt;br&gt;Route 53" style="text;html=1;resizable=0;autosize=1;align=center;verticalAlign=middle;points=[];fillColor=none;strokeColor=none;rounded=0;fontSize=12;labelBackgroundColor=default;" vertex="1" parent="oiIDUnYNHTpMOxStJqNs-1">
          <mxGeometry x="90" y="310" width="60" height="30" as="geometry" />
        </mxCell>
        <mxCell id="oiIDUnYNHTpMOxStJqNs-4" value="" style="sketch=0;points=[[0,0,0],[0.25,0,0],[0.5,0,0],[0.75,0,0],[1,0,0],[0,1,0],[0.25,1,0],[0.5,1,0],[0.75,1,0],[1,1,0],[0,0.25,0],[0,0.5,0],[0,0.75,0],[1,0.25,0],[1,0.5,0],[1,0.75,0]];outlineConnect=0;fontColor=#232F3E;gradientColor=#945DF2;gradientDirection=north;fillColor=#5A30B5;strokeColor=#ffffff;dashed=0;verticalLabelPosition=bottom;verticalAlign=top;align=center;html=1;fontSize=17;fontStyle=0;aspect=fixed;shape=mxgraph.aws4.resourceIcon;resIcon=mxgraph.aws4.cloudfront;" vertex="1" parent="oiIDUnYNHTpMOxStJqNs-1">
          <mxGeometry x="79" y="430" width="80" height="80" as="geometry" />
        </mxCell>
        <mxCell id="oiIDUnYNHTpMOxStJqNs-5" value="Amazon &lt;br&gt;Cloud Front" style="text;html=1;resizable=0;autosize=1;align=center;verticalAlign=middle;points=[];fillColor=none;strokeColor=none;rounded=0;fontSize=12;labelBackgroundColor=default;" vertex="1" parent="oiIDUnYNHTpMOxStJqNs-1">
          <mxGeometry x="79" y="520" width="80" height="30" as="geometry" />
        </mxCell>
        <mxCell id="oiIDUnYNHTpMOxStJqNs-6" value="Amazon S3" style="outlineConnect=0;fontColor=#232F3E;gradientColor=#60A337;gradientDirection=north;fillColor=#277116;strokeColor=#ffffff;dashed=0;verticalLabelPosition=bottom;verticalAlign=top;align=center;html=1;fontSize=12;fontStyle=0;aspect=fixed;shape=mxgraph.aws4.resourceIcon;resIcon=mxgraph.aws4.s3;labelBackgroundColor=#ffffff;" vertex="1" parent="oiIDUnYNHTpMOxStJqNs-1">
          <mxGeometry x="310" y="658" width="80" height="80" as="geometry" />
        </mxCell>
        <mxCell id="oiIDUnYNHTpMOxStJqNs-7" value="" style="sketch=0;points=[[0,0,0],[0.25,0,0],[0.5,0,0],[0.75,0,0],[1,0,0],[0,1,0],[0.25,1,0],[0.5,1,0],[0.75,1,0],[1,1,0],[0,0.25,0],[0,0.5,0],[0,0.75,0],[1,0.25,0],[1,0.5,0],[1,0.75,0]];outlineConnect=0;fontColor=#232F3E;gradientColor=#FF4F8B;gradientDirection=north;fillColor=#BC1356;strokeColor=#ffffff;dashed=0;verticalLabelPosition=bottom;verticalAlign=top;align=center;html=1;fontSize=12;fontStyle=0;aspect=fixed;shape=mxgraph.aws4.resourceIcon;resIcon=mxgraph.aws4.sqs;labelBackgroundColor=default;" vertex="1" parent="oiIDUnYNHTpMOxStJqNs-1">
          <mxGeometry x="311" y="322" width="78" height="78" as="geometry" />
        </mxCell>
        <mxCell id="oiIDUnYNHTpMOxStJqNs-8" value="Amazon &lt;br&gt;Simple Queue Service" style="text;html=1;resizable=0;autosize=1;align=center;verticalAlign=middle;points=[];fillColor=none;strokeColor=none;rounded=0;fontSize=12;labelBackgroundColor=default;" vertex="1" parent="oiIDUnYNHTpMOxStJqNs-1">
          <mxGeometry x="290" y="410" width="130" height="30" as="geometry" />
        </mxCell>
        <mxCell id="oiIDUnYNHTpMOxStJqNs-9" value="IAM Roles" style="outlineConnect=0;fontColor=#232F3E;gradientColor=none;fillColor=#C7131F;strokeColor=none;dashed=0;verticalLabelPosition=bottom;verticalAlign=top;align=center;html=1;fontSize=12;fontStyle=0;aspect=fixed;pointerEvents=1;shape=mxgraph.aws4.role;labelBackgroundColor=#ffffff;" vertex="1" parent="oiIDUnYNHTpMOxStJqNs-1">
          <mxGeometry x="820.0000000000002" y="658" width="78" height="44" as="geometry" />
        </mxCell>
        <mxCell id="oiIDUnYNHTpMOxStJqNs-10" value="Amazon&lt;br&gt;DynamoDB&lt;br&gt;" style="outlineConnect=0;fontColor=#232F3E;gradientColor=#4D72F3;gradientDirection=north;fillColor=#3334B9;strokeColor=#ffffff;dashed=0;verticalLabelPosition=bottom;verticalAlign=top;align=center;html=1;fontSize=12;fontStyle=0;aspect=fixed;shape=mxgraph.aws4.resourceIcon;resIcon=mxgraph.aws4.dynamodb;labelBackgroundColor=#ffffff;spacingTop=5;" vertex="1" parent="oiIDUnYNHTpMOxStJqNs-1">
          <mxGeometry x="680.0000000000002" y="658" width="78" height="78" as="geometry" />
        </mxCell>
        <mxCell id="oiIDUnYNHTpMOxStJqNs-12" value="Availability Zone" style="fillColor=none;strokeColor=#147EBA;dashed=1;verticalAlign=top;fontStyle=0;fontColor=#147EBA;" vertex="1" parent="oiIDUnYNHTpMOxStJqNs-1">
          <mxGeometry x="460" y="400" width="610" height="140" as="geometry" />
        </mxCell>
        <mxCell id="oiIDUnYNHTpMOxStJqNs-16" value="" style="sketch=0;outlineConnect=0;fontColor=#232F3E;gradientColor=none;fillColor=#3F8624;strokeColor=none;dashed=0;verticalLabelPosition=bottom;verticalAlign=top;align=center;html=1;fontSize=12;fontStyle=0;aspect=fixed;pointerEvents=1;shape=mxgraph.aws4.s3_file_gateway;" vertex="1" parent="oiIDUnYNHTpMOxStJqNs-1">
          <mxGeometry x="520" y="430" width="60" height="60" as="geometry" />
        </mxCell>
        <mxCell id="oiIDUnYNHTpMOxStJqNs-17" value="" style="sketch=0;outlineConnect=0;fontColor=#232F3E;gradientColor=none;fillColor=#3F8624;strokeColor=none;dashed=0;verticalLabelPosition=bottom;verticalAlign=top;align=center;html=1;fontSize=12;fontStyle=0;aspect=fixed;pointerEvents=1;shape=mxgraph.aws4.s3_file_gateway;" vertex="1" parent="oiIDUnYNHTpMOxStJqNs-1">
          <mxGeometry x="520" y="210" width="60" height="60" as="geometry" />
        </mxCell>
        <mxCell id="oiIDUnYNHTpMOxStJqNs-18" value="S3 Gateway" style="text;html=1;resizable=0;autosize=1;align=center;verticalAlign=middle;points=[];fillColor=none;strokeColor=none;rounded=0;" vertex="1" parent="oiIDUnYNHTpMOxStJqNs-1">
          <mxGeometry x="510" y="270" width="80" height="20" as="geometry" />
        </mxCell>
        <mxCell id="oiIDUnYNHTpMOxStJqNs-19" value="S3 Gateway" style="text;html=1;resizable=0;autosize=1;align=center;verticalAlign=middle;points=[];fillColor=none;strokeColor=none;rounded=0;" vertex="1" parent="oiIDUnYNHTpMOxStJqNs-1">
          <mxGeometry x="510" y="490" width="80" height="20" as="geometry" />
        </mxCell>
        <mxCell id="oiIDUnYNHTpMOxStJqNs-20" style="edgeStyle=orthogonalEdgeStyle;rounded=0;orthogonalLoop=1;jettySize=auto;html=1;startArrow=open;startFill=0;endArrow=open;endFill=0;strokeWidth=2;strokeColor=#808080;" edge="1" parent="oiIDUnYNHTpMOxStJqNs-1">
          <mxGeometry relative="1" as="geometry">
            <mxPoint x="160" y="440" as="sourcePoint" />
            <mxPoint x="157.99999999999955" y="270.0000000000002" as="targetPoint" />
            <Array as="points">
              <mxPoint x="180" y="440" />
              <mxPoint x="180" y="270" />
            </Array>
          </mxGeometry>
        </mxCell>
        <mxCell id="oiIDUnYNHTpMOxStJqNs-21" style="edgeStyle=orthogonalEdgeStyle;rounded=0;orthogonalLoop=1;jettySize=auto;html=1;startArrow=open;startFill=0;endArrow=open;endFill=0;strokeWidth=2;strokeColor=#808080;entryX=1;entryY=0.5;entryDx=0;entryDy=0;entryPerimeter=0;exitX=1;exitY=0.25;exitDx=0;exitDy=0;exitPerimeter=0;" edge="1" parent="oiIDUnYNHTpMOxStJqNs-1" source="oiIDUnYNHTpMOxStJqNs-4" target="oiIDUnYNHTpMOxStJqNs-2">
          <mxGeometry relative="1" as="geometry">
            <mxPoint x="170" y="450" as="sourcePoint" />
            <mxPoint x="167.99999999999955" y="280" as="targetPoint" />
            <Array as="points">
              <mxPoint x="190" y="450" />
              <mxPoint x="190" y="261" />
            </Array>
          </mxGeometry>
        </mxCell>
        <mxCell id="oiIDUnYNHTpMOxStJqNs-22" style="edgeStyle=orthogonalEdgeStyle;rounded=0;orthogonalLoop=1;jettySize=auto;html=1;startArrow=open;startFill=0;endArrow=open;endFill=0;strokeWidth=2;strokeColor=#808080;entryX=1;entryY=0.5;entryDx=0;entryDy=0;entryPerimeter=0;" edge="1" parent="oiIDUnYNHTpMOxStJqNs-1" source="oiIDUnYNHTpMOxStJqNs-6">
          <mxGeometry relative="1" as="geometry">
            <mxPoint x="159" y="679" as="sourcePoint" />
            <mxPoint x="159" y="490" as="targetPoint" />
            <Array as="points">
              <mxPoint x="210" y="710" />
              <mxPoint x="210" y="490" />
            </Array>
          </mxGeometry>
        </mxCell>
        <mxCell id="oiIDUnYNHTpMOxStJqNs-23" style="edgeStyle=orthogonalEdgeStyle;rounded=0;orthogonalLoop=1;jettySize=auto;html=1;startArrow=open;startFill=0;endArrow=open;endFill=0;strokeWidth=2;strokeColor=#808080;" edge="1" parent="oiIDUnYNHTpMOxStJqNs-1" source="oiIDUnYNHTpMOxStJqNs-6" target="oiIDUnYNHTpMOxStJqNs-4">
          <mxGeometry relative="1" as="geometry">
            <mxPoint x="280" y="700" as="sourcePoint" />
            <mxPoint x="169" y="500" as="targetPoint" />
            <Array as="points">
              <mxPoint x="220" y="700" />
              <mxPoint x="220" y="480" />
            </Array>
          </mxGeometry>
        </mxCell>
        <mxCell id="oiIDUnYNHTpMOxStJqNs-25" style="edgeStyle=orthogonalEdgeStyle;rounded=0;orthogonalLoop=1;jettySize=auto;html=1;startArrow=open;startFill=0;endArrow=open;endFill=0;strokeWidth=2;strokeColor=#808080;" edge="1" parent="oiIDUnYNHTpMOxStJqNs-1" source="oiIDUnYNHTpMOxStJqNs-6" target="oiIDUnYNHTpMOxStJqNs-7">
          <mxGeometry relative="1" as="geometry">
            <mxPoint x="330" y="720.04347826087" as="sourcePoint" />
            <mxPoint x="179" y="500.04347826086996" as="targetPoint" />
            <Array as="points">
              <mxPoint x="240" y="690" />
              <mxPoint x="240" y="360" />
            </Array>
          </mxGeometry>
        </mxCell>
        <mxCell id="oiIDUnYNHTpMOxStJqNs-24" style="edgeStyle=orthogonalEdgeStyle;rounded=0;orthogonalLoop=1;jettySize=auto;html=1;startArrow=open;startFill=0;endArrow=open;endFill=0;strokeWidth=2;strokeColor=#808080;" edge="1" parent="oiIDUnYNHTpMOxStJqNs-1" source="oiIDUnYNHTpMOxStJqNs-6">
          <mxGeometry relative="1" as="geometry">
            <mxPoint x="414" y="710.00347826087" as="sourcePoint" />
            <mxPoint x="310" y="370" as="targetPoint" />
            <Array as="points">
              <mxPoint x="250" y="680" />
              <mxPoint x="250" y="370" />
              <mxPoint x="310" y="370" />
            </Array>
          </mxGeometry>
        </mxCell>
        <mxCell id="oiIDUnYNHTpMOxStJqNs-32" value="" style="fillColor=none;strokeColor=#CC0000;dashed=1;verticalAlign=top;fontStyle=0;fontColor=#5A6C86;strokeWidth=2;" vertex="1" parent="oiIDUnYNHTpMOxStJqNs-1">
          <mxGeometry x="680" y="222" width="150" height="288" as="geometry" />
        </mxCell>
        <mxCell id="oiIDUnYNHTpMOxStJqNs-33" value="" style="sketch=0;points=[[0,0,0],[0.25,0,0],[0.5,0,0],[0.75,0,0],[1,0,0],[0,1,0],[0.25,1,0],[0.5,1,0],[0.75,1,0],[1,1,0],[0,0.25,0],[0,0.5,0],[0,0.75,0],[1,0.25,0],[1,0.5,0],[1,0.75,0]];outlineConnect=0;fontColor=#232F3E;gradientColor=#F78E04;gradientDirection=north;fillColor=#D05C17;strokeColor=#ffffff;dashed=0;verticalLabelPosition=bottom;verticalAlign=top;align=center;html=1;fontSize=12;fontStyle=0;aspect=fixed;shape=mxgraph.aws4.resourceIcon;resIcon=mxgraph.aws4.ec2;" vertex="1" parent="oiIDUnYNHTpMOxStJqNs-1">
          <mxGeometry x="700" y="240" width="30" height="30" as="geometry" />
        </mxCell>
        <mxCell id="oiIDUnYNHTpMOxStJqNs-39" value="" style="sketch=0;points=[[0,0,0],[0.25,0,0],[0.5,0,0],[0.75,0,0],[1,0,0],[0,1,0],[0.25,1,0],[0.5,1,0],[0.75,1,0],[1,1,0],[0,0.25,0],[0,0.5,0],[0,0.75,0],[1,0.25,0],[1,0.5,0],[1,0.75,0]];outlineConnect=0;fontColor=#232F3E;gradientColor=#F78E04;gradientDirection=north;fillColor=#D05C17;strokeColor=#ffffff;dashed=0;verticalLabelPosition=bottom;verticalAlign=top;align=center;html=1;fontSize=12;fontStyle=0;aspect=fixed;shape=mxgraph.aws4.resourceIcon;resIcon=mxgraph.aws4.ec2;" vertex="1" parent="oiIDUnYNHTpMOxStJqNs-1">
          <mxGeometry x="700" y="455" width="30" height="30" as="geometry" />
        </mxCell>
        <mxCell id="oiIDUnYNHTpMOxStJqNs-38" value="" style="sketch=0;points=[[0,0,0],[0.25,0,0],[0.5,0,0],[0.75,0,0],[1,0,0],[0,1,0],[0.25,1,0],[0.5,1,0],[0.75,1,0],[1,1,0],[0,0.25,0],[0,0.5,0],[0,0.75,0],[1,0.25,0],[1,0.5,0],[1,0.75,0]];outlineConnect=0;fontColor=#232F3E;gradientColor=#F78E04;gradientDirection=north;fillColor=#D05C17;strokeColor=#ffffff;dashed=0;verticalLabelPosition=bottom;verticalAlign=top;align=center;html=1;fontSize=12;fontStyle=0;aspect=fixed;shape=mxgraph.aws4.resourceIcon;resIcon=mxgraph.aws4.ec2;" vertex="1" parent="oiIDUnYNHTpMOxStJqNs-1">
          <mxGeometry x="740" y="455" width="30" height="30" as="geometry" />
        </mxCell>
        <mxCell id="oiIDUnYNHTpMOxStJqNs-37" value="" style="sketch=0;points=[[0,0,0],[0.25,0,0],[0.5,0,0],[0.75,0,0],[1,0,0],[0,1,0],[0.25,1,0],[0.5,1,0],[0.75,1,0],[1,1,0],[0,0.25,0],[0,0.5,0],[0,0.75,0],[1,0.25,0],[1,0.5,0],[1,0.75,0]];outlineConnect=0;fontColor=#232F3E;gradientColor=#F78E04;gradientDirection=north;fillColor=#D05C17;strokeColor=#ffffff;dashed=0;verticalLabelPosition=bottom;verticalAlign=top;align=center;html=1;fontSize=12;fontStyle=0;aspect=fixed;shape=mxgraph.aws4.resourceIcon;resIcon=mxgraph.aws4.ec2;" vertex="1" parent="oiIDUnYNHTpMOxStJqNs-1">
          <mxGeometry x="780" y="455" width="30" height="30" as="geometry" />
        </mxCell>
        <mxCell id="oiIDUnYNHTpMOxStJqNs-36" value="" style="sketch=0;points=[[0,0,0],[0.25,0,0],[0.5,0,0],[0.75,0,0],[1,0,0],[0,1,0],[0.25,1,0],[0.5,1,0],[0.75,1,0],[1,1,0],[0,0.25,0],[0,0.5,0],[0,0.75,0],[1,0.25,0],[1,0.5,0],[1,0.75,0]];outlineConnect=0;fontColor=#232F3E;gradientColor=#F78E04;gradientDirection=north;fillColor=#D05C17;strokeColor=#ffffff;dashed=0;verticalLabelPosition=bottom;verticalAlign=top;align=center;html=1;fontSize=12;fontStyle=0;aspect=fixed;shape=mxgraph.aws4.resourceIcon;resIcon=mxgraph.aws4.ec2;" vertex="1" parent="oiIDUnYNHTpMOxStJqNs-1">
          <mxGeometry x="780" y="240" width="30" height="30" as="geometry" />
        </mxCell>
        <mxCell id="oiIDUnYNHTpMOxStJqNs-35" value="" style="sketch=0;points=[[0,0,0],[0.25,0,0],[0.5,0,0],[0.75,0,0],[1,0,0],[0,1,0],[0.25,1,0],[0.5,1,0],[0.75,1,0],[1,1,0],[0,0.25,0],[0,0.5,0],[0,0.75,0],[1,0.25,0],[1,0.5,0],[1,0.75,0]];outlineConnect=0;fontColor=#232F3E;gradientColor=#F78E04;gradientDirection=north;fillColor=#D05C17;strokeColor=#ffffff;dashed=0;verticalLabelPosition=bottom;verticalAlign=top;align=center;html=1;fontSize=12;fontStyle=0;aspect=fixed;shape=mxgraph.aws4.resourceIcon;resIcon=mxgraph.aws4.ec2;" vertex="1" parent="oiIDUnYNHTpMOxStJqNs-1">
          <mxGeometry x="738" y="240" width="30" height="30" as="geometry" />
        </mxCell>
        <mxCell id="oiIDUnYNHTpMOxStJqNs-40" value="App Servers" style="text;html=1;resizable=0;autosize=1;align=center;verticalAlign=middle;points=[];fillColor=none;strokeColor=none;rounded=0;" vertex="1" parent="oiIDUnYNHTpMOxStJqNs-1">
          <mxGeometry x="710" y="270" width="80" height="20" as="geometry" />
        </mxCell>
        <mxCell id="oiIDUnYNHTpMOxStJqNs-41" value="App Servers" style="text;html=1;resizable=0;autosize=1;align=center;verticalAlign=middle;points=[];fillColor=none;strokeColor=none;rounded=0;" vertex="1" parent="oiIDUnYNHTpMOxStJqNs-1">
          <mxGeometry x="713" y="485" width="80" height="20" as="geometry" />
        </mxCell>
        <mxCell id="oiIDUnYNHTpMOxStJqNs-42" style="edgeStyle=orthogonalEdgeStyle;rounded=0;orthogonalLoop=1;jettySize=auto;html=1;startArrow=open;startFill=0;endArrow=open;endFill=0;strokeWidth=2;strokeColor=#808080;" edge="1" parent="oiIDUnYNHTpMOxStJqNs-1" source="oiIDUnYNHTpMOxStJqNs-7">
          <mxGeometry relative="1" as="geometry">
            <mxPoint x="679" y="676.00347826087" as="sourcePoint" />
            <mxPoint x="680" y="346.00347826086954" as="targetPoint" />
            <Array as="points">
              <mxPoint x="490" y="346" />
              <mxPoint x="490" y="346" />
            </Array>
          </mxGeometry>
        </mxCell>
        <mxCell id="oiIDUnYNHTpMOxStJqNs-43" style="edgeStyle=orthogonalEdgeStyle;rounded=0;orthogonalLoop=1;jettySize=auto;html=1;startArrow=open;startFill=0;endArrow=open;endFill=0;strokeWidth=2;strokeColor=#808080;" edge="1" parent="oiIDUnYNHTpMOxStJqNs-1">
          <mxGeometry relative="1" as="geometry">
            <mxPoint x="389.9999999999998" y="356.04347826086996" as="sourcePoint" />
            <mxPoint x="681" y="356.00347826086954" as="targetPoint" />
            <Array as="points">
              <mxPoint x="491" y="356" />
              <mxPoint x="491" y="356" />
            </Array>
          </mxGeometry>
        </mxCell>
        <mxCell id="oiIDUnYNHTpMOxStJqNs-44" style="edgeStyle=orthogonalEdgeStyle;rounded=0;orthogonalLoop=1;jettySize=auto;html=1;startArrow=open;startFill=0;endArrow=open;endFill=0;strokeWidth=2;strokeColor=#808080;" edge="1" parent="oiIDUnYNHTpMOxStJqNs-1">
          <mxGeometry relative="1" as="geometry">
            <mxPoint x="580" y="254.64" as="sourcePoint" />
            <mxPoint x="635" y="254.64" as="targetPoint" />
            <Array as="points">
              <mxPoint x="616" y="254.64" />
            </Array>
          </mxGeometry>
        </mxCell>
        <mxCell id="oiIDUnYNHTpMOxStJqNs-45" style="edgeStyle=orthogonalEdgeStyle;rounded=0;orthogonalLoop=1;jettySize=auto;html=1;startArrow=open;startFill=0;endArrow=open;endFill=0;strokeWidth=2;strokeColor=#808080;" edge="1" parent="oiIDUnYNHTpMOxStJqNs-1">
          <mxGeometry relative="1" as="geometry">
            <mxPoint x="579.9999999999998" y="480" as="sourcePoint" />
            <mxPoint x="634.9999999999998" y="480" as="targetPoint" />
            <Array as="points">
              <mxPoint x="616" y="480" />
            </Array>
          </mxGeometry>
        </mxCell>
        <mxCell id="oiIDUnYNHTpMOxStJqNs-46" style="edgeStyle=orthogonalEdgeStyle;rounded=0;orthogonalLoop=1;jettySize=auto;html=1;startArrow=open;startFill=0;endArrow=open;endFill=0;strokeWidth=2;strokeColor=#808080;entryX=0.179;entryY=0.996;entryDx=0;entryDy=0;entryPerimeter=0;" edge="1" parent="oiIDUnYNHTpMOxStJqNs-1" source="oiIDUnYNHTpMOxStJqNs-10" target="oiIDUnYNHTpMOxStJqNs-32">
          <mxGeometry relative="1" as="geometry">
            <mxPoint x="459.9999999999998" y="650.0000000000002" as="sourcePoint" />
            <mxPoint x="750.9999999999998" y="650.0034782608695" as="targetPoint" />
            <Array as="points">
              <mxPoint x="707" y="620" />
              <mxPoint x="707" y="620" />
            </Array>
          </mxGeometry>
        </mxCell>
        <mxCell id="oiIDUnYNHTpMOxStJqNs-47" style="edgeStyle=orthogonalEdgeStyle;rounded=0;orthogonalLoop=1;jettySize=auto;html=1;startArrow=open;startFill=0;endArrow=open;endFill=0;strokeWidth=2;strokeColor=#808080;entryX=0.179;entryY=0.996;entryDx=0;entryDy=0;entryPerimeter=0;" edge="1" parent="oiIDUnYNHTpMOxStJqNs-1">
          <mxGeometry relative="1" as="geometry">
            <mxPoint x="720.15" y="659.1500000000001" as="sourcePoint" />
            <mxPoint x="719.9999999999999" y="509.99800000000005" as="targetPoint" />
            <Array as="points">
              <mxPoint x="720.15" y="621.1500000000001" />
              <mxPoint x="720.15" y="621.1500000000001" />
            </Array>
          </mxGeometry>
        </mxCell>
        <mxCell id="oiIDUnYNHTpMOxStJqNs-48" style="edgeStyle=orthogonalEdgeStyle;rounded=0;orthogonalLoop=1;jettySize=auto;html=1;startArrow=open;startFill=0;endArrow=open;endFill=0;strokeWidth=2;strokeColor=#808080;" edge="1" parent="oiIDUnYNHTpMOxStJqNs-1" source="oiIDUnYNHTpMOxStJqNs-9">
          <mxGeometry relative="1" as="geometry">
            <mxPoint x="860" y="654" as="sourcePoint" />
            <mxPoint x="830" y="479" as="targetPoint" />
            <Array as="points">
              <mxPoint x="860" y="479" />
            </Array>
          </mxGeometry>
        </mxCell>
        <mxCell id="oiIDUnYNHTpMOxStJqNs-49" style="edgeStyle=orthogonalEdgeStyle;rounded=0;orthogonalLoop=1;jettySize=auto;html=1;startArrow=open;startFill=0;endArrow=open;endFill=0;strokeWidth=2;strokeColor=#808080;entryX=1.017;entryY=0.892;entryDx=0;entryDy=0;entryPerimeter=0;" edge="1" parent="oiIDUnYNHTpMOxStJqNs-1" source="oiIDUnYNHTpMOxStJqNs-9">
          <mxGeometry relative="1" as="geometry">
            <mxPoint x="867.6000000000006" y="645.25" as="sourcePoint" />
            <mxPoint x="830.0000000000002" y="469.99599999999964" as="targetPoint" />
            <Array as="points">
              <mxPoint x="870" y="470" />
            </Array>
          </mxGeometry>
        </mxCell>
        <mxCell id="oiIDUnYNHTpMOxStJqNs-50" value="User" style="sketch=0;outlineConnect=0;fontColor=#232F3E;gradientColor=none;strokeColor=#232F3E;fillColor=#ffffff;dashed=0;verticalLabelPosition=bottom;verticalAlign=top;align=center;html=1;fontSize=12;fontStyle=0;aspect=fixed;shape=mxgraph.aws4.resourceIcon;resIcon=mxgraph.aws4.user;labelBackgroundColor=default;" vertex="1" parent="1">
          <mxGeometry x="90" y="1310" width="70" height="70" as="geometry" />
        </mxCell>
        <mxCell id="oiIDUnYNHTpMOxStJqNs-51" style="edgeStyle=orthogonalEdgeStyle;rounded=0;orthogonalLoop=1;jettySize=auto;html=1;startArrow=open;startFill=0;endArrow=open;endFill=0;strokeWidth=2;strokeColor=#808080;" edge="1" parent="1" target="oiIDUnYNHTpMOxStJqNs-50">
          <mxGeometry relative="1" as="geometry">
            <mxPoint x="340" y="1330" as="sourcePoint" />
            <mxPoint x="150" y="1320" as="targetPoint" />
            <Array as="points">
              <mxPoint x="200" y="1330" />
              <mxPoint x="200" y="1330" />
            </Array>
          </mxGeometry>
        </mxCell>
        <mxCell id="oiIDUnYNHTpMOxStJqNs-52" style="edgeStyle=orthogonalEdgeStyle;rounded=0;orthogonalLoop=1;jettySize=auto;html=1;startArrow=open;startFill=0;endArrow=open;endFill=0;strokeWidth=2;strokeColor=#808080;" edge="1" parent="1">
          <mxGeometry relative="1" as="geometry">
            <mxPoint x="340" y="1344.71" as="sourcePoint" />
            <mxPoint x="160" y="1345" as="targetPoint" />
            <Array as="points">
              <mxPoint x="200" y="1344.71" />
              <mxPoint x="200" y="1344.71" />
            </Array>
          </mxGeometry>
        </mxCell>
      </root>
    </mxGraphModel>
  </diagram>
</mxfile>
